<svg xmlns="http://www.w3.org/2000/svg" viewBox="0 0 445 431" version="1.1" width="445" height="431">
	<path d="M 184.5 5.176376456315406 C 155.74804467541819 8.073858869854226, 121.33682718421043 20.296234004934583, 96.5 36.43272512116244 C 72.77208908818886 51.848753134535215, 52.556379870996146 71.51566488411929, 37.69823850922266 93.6381905112014 C 29.6973844952603 105.55079072496717, 16.635000507390266 130.60040142070602, 17.605257686035387 132.17031051358236 C 17.890831628547915 132.63237885886895, 20.192388727139484 131.58767827586368, 22.719829016238876 129.8487536624596 C 25.247269305338268 128.1098290490555, 29.38176062222518 125.91870212470539, 31.907587498209793 124.97958271945936 C 35.67929730730807 123.57723566774376, 37.03612520153972 122.33626647841356, 39.5 118.03548168242796 C 64.74467720849003 73.96996180061967, 100.7492511206765 44.33317936474161, 148.2767667947857 28.497041943132828 C 196.42036445366713 12.455626403460215, 253.28712163453824 17.102574402065223, 296.9527414185026 40.64631081248085 C 326.6591914042028 56.663507673828605, 352.37785861955695 80.2937425067003, 369.4428427502852 107.25 C 372.14126981774103 111.51249999999999, 374.69063167565474 114.99999999999999, 375.1080913234268 114.99999999999997 C 376.92936748670456 114.99999999999994, 386.00000000000006 108.56597975257351, 386 107.2741042749254 C 386 106.48928484666403, 383.68938286489475 102.39404889142617, 380.8652952553217 98.17357992995237 C 335.97288074298666 31.08393249384838, 264.29016785677464 -2.8644891310297442, 184.5 5.176376456315406 M 195 27.038145754523825 C 139.0949310153917 31.56262027852847, 91.35187646513785 58.09931825318945, 57.867651200226604 103.25948845946206 C 52.54101942405443 110.4435160346843, 48.00000000000006 117.89894503516038, 48.000000000000014 119.46016193270353 C 48.00000000000001 119.75707286971658, 49.295405845398165 120, 50.87867965644037 120 C 53.127254616732884 120, 54.02635075914285 119.35059720227164, 54.98626652281766 117.03315554687217 C 57.24349121947665 111.58373307087442, 58.327484948171815 111.40401031370315, 65.75105011490963 115.24838822183273 C 79.59613381139081 122.41822275597833, 82.44103946485478 120.92997566768382, 70.95271925673899 112.52725441369641 C 66.57872366553256 109.328051653565, 63.00000000000002 106.27791159836833, 63.000000000000014 105.74916540214826 C 63 104.96763964961166, 66.78844107043194 99.55195163047777, 70.03380883634082 95.69412863751256 C 70.40667247508999 95.25089938814448, 76.35209463465102 98.92425306103182, 83.2458580798098 103.85713679948445 C 100.62178880869901 116.2906133489605, 103.93249470252843 118.4008386308049, 104.76195658421383 117.57137674911951 C 105.15867192072812 117.17466141260525, 103.23702432694495 114.77091783176684, 100.491628598029 112.2297243472564 C 84.78689235552643 97.69310472806552, 77.00000000000003 89.86086985936939, 77.00000000000003 88.6013056883852 C 77.00000000000003 87.2317725476496, 82.44394896442472 81.9815473418979, 83.82672528194335 82.01751047240839 C 84.1970263768745 82.02714123223302, 86.91010656413928 84.277141232233, 89.85579236475397 87.01751047240839 C 98.40853709839983 94.97412233585433, 98.9343857871882 93.85421848834794, 91.37066796333718 83.79126868932835 L 87.07975589197711 78.08253737865668 90.28987794598856 75.53612954470219 L 93.5 72.98972171074772 99 79.24338955788272 C 110.06676789420843 91.82664238546766, 130.19007277882213 113.00000000000001, 131.0825150249966 113 C 132.75060837613006 113, 132.04207828634293 111.40915623106542, 128.5645188537165 107.34641015671528 C 126.67500422326057 105.13893727349438, 119.43555462238523 95.50090741761703, 112.47685307399351 85.92856603254342 L 99.82466844055402 68.52430896877318 103.66233422027702 65.2770312468097 C 105.77305039912466 63.49102849972978, 107.7555130118418 62.02305898175582, 108.06780669298179 62.014876762423114 C 108.38010037412178 62.006694543090404, 111.44058941359154 66.3270109605299, 114.86889344735903 71.61557991228867 C 118.29719748112652 76.90414886404743, 121.33298191635568 81.00035141697676, 121.61508108120158 80.7182522521316 C 121.89718024604748 80.43615308728647, 119.84919120657773 75.84931405570632, 117.06399432682434 70.52527662639791 C 114.27879744707097 65.20123919708952, 112.00557037843097 60.54253664416019, 112.0123786187355 60.17260428655496 C 112.02368438257321 59.55829461416558, 118.48196072287102 54.999999999999986, 119.34102029489357 55 C 119.5440083036626 55, 122.07912259215162 59.1625, 124.97460760264697 64.25 C 127.87009261314232 69.3375, 133.84370356799255 79.125, 138.24929861342525 86 C 142.654893658858 92.875, 146.97307155382248 99.625, 147.84524949112418 101 C 148.98856143380638 102.80244632884386, 149.51731613752045 103.08146779730632, 149.74028182188988 102 C 149.9103716665093 101.175, 144.63839046574657 89.55300775766023, 138.02476804241715 76.17335057257827 C 131.4111456190877 62.79369338749631, 125.99999999999999 51.724536841073835, 126 51.57522491386165 C 126.00000000000003 51.03268573871829, 134.0305542256504 47.6983717613207, 134.38551895859052 48.093528347757406 C 134.71878948011238 48.46453433630665, 141.27241477957725 60.61458467597998, 144.7183434127149 67.25 C 145.9063665069081 69.53763491173105, 148 71.03930851461611, 148 69.60379166751017 C 148 69.10488682586886, 141.51649925885886 54.74743437070374, 139.0490610977003 49.78229632883045 L 137.2015386657435 46.064592657660896 142.35076933287175 44.12232498088475 C 147.0890010125824 42.33508435573108, 147.5526577880544 42.31255215377677, 148.15972692248363 43.8400286520543 C 162.3205225775412 79.47070287559089, 170.02371400892198 97.1226432772945, 170.660196220477 95.40007965124745 C 171.0373569701206 94.37933880929765, 164.86812139297234 72.94135077596795, 157.9516336835173 51.23804236459507 C 154.37718046144906 40.02173374967183, 154.38261737725077 40.18522676067193, 157.54410328256722 38.98323196185457 C 164.92216326987062 36.178098554431266, 164.5253672060951 35.87819628199083, 168.08084393259426 46.94700164996887 C 171.94513157030036 58.977188046314076, 173.6902924361819 59.0091573323035, 170.97395347721243 47 C 169.91652003023583 42.325, 169.03979408773625 37.95484483289349, 169.02567360499114 37.288544073096645 C 168.99930602208315 36.04434153110706, 176.78533846716 33.45200513382648, 177.7253469745895 34.39201364125618 C 178.0132518397037 34.679918506370456, 179.5180530935747 40.89699470008911, 181.0693497609695 48.207738516186524 C 182.62064642836424 55.51848233228394, 185.03966409608034 66.87851355723068, 186.44494457811635 73.4522523494015 C 187.85022506015235 80.02599114157233, 189 85.79004878904105, 189 86.26126934377645 C 189 86.73248989851184, 189.47158934119375 86.82657574715999, 190.04797631376385 86.470349007439 C 190.67200093584324 86.08468058117715, 190.8532081863903 84.13922545654522, 190.49590684495502 81.66133201306405 C 189.24276666578442 72.97077456579585, 185.24442940764885 33.48277774773428, 185.5805802834243 33.11705295643285 C 185.7741695421315 32.90643208247092, 187.63523458419579 32.68143208247092, 189.7162803769005 32.61705295643285 L 193.5 32.5 194.32447133806906 39.5 C 195.7213332290789 51.35976126225263, 196.48284730427304 52.08141472080216, 196.78522355563211 41.831946849419865 L 197.0704471112642 32.163893698839736 201.10260788242448 31.482664509545565 C 203.3202963065626 31.107988455433766, 205.3041393948681 30.97080606153474, 205.51114807865883 31.177814745325506 C 205.7181567624496 31.384823429116274, 206.1964820977002 40.31700048205971, 206.57409326810458 51.02709708519981 C 207.62290095757743 80.77418232195551, 209.63731233392824 78.894930885977, 210.89082812688193 47 L 211.5 31.5 214.5 31.7854808967823 C 219.50984433372034 32.26221918115903, 220 32.72939557457811, 220 37.02763219803623 C 220 39.4999227176786, 220.39558736619588 40.87354755092079, 221 40.5 C 221.55 40.16008130618755, 222 38.333523658718825, 222 36.44098300562505 C 222 34.411376649490094, 222.5127083769314 32.95653767369175, 223.25 32.894037409315466 C 224.97990868035933 32.74739292498064, 230.4446173130624 33.138205023772635, 230.75173553274942 33.43052877695973 C 230.89019007576164 33.5623137023229, 230.3527330368425 40.15685674242826, 229.5573865573736 48.08506886608275 C 228.26188949908786 60.998906732717394, 228.54128148917255 65.79205184416149, 230.4767090782667 63.85662425506669 C 230.88677561954793 63.44655771378534, 235.25871609345867 46.3340253810407, 237.50048781128135 36.36433761850088 C 237.97186355666352 34.268018460339924, 238.11249644589552 34.25378598027386, 245.13444216608383 35.59175800520176 C 249.0689947334419 36.34145352771176, 252.4504255291007 37.11709219576747, 252.64873282310333 37.31539948977 C 252.84704011710593 37.513706783772534, 252.06911034670944 42.28577701337608, 250.92 47.92000000000009 C 247.82175057538825 63.11108080127306, 249.89869022970078 63.38728587141599, 255.064673289901 48.47118586347938 C 256.77354804917394 43.53703363856572, 258.2635253870113 39.407056300728314, 258.37573404065074 39.293458446062914 C 258.7215514488634 38.94335963991255, 266.8282474147842 41.494914081450126, 267.49799030198943 42.164656968655954 C 267.84489164489656 42.51155831156339, 266.7085214698446 46.778924679350666, 264.9727232463183 51.64769334151656 C 261.40654777099456 61.65051692015136, 259.6961048199316 71, 261.43231184302306 71 C 262.4932922114186 71.00000000000001, 273 49.379494580210434, 273 47.196229159036704 C 273 44.812816692596385, 275.3769678531924 45.0188245830442, 283.0066720245894 48.06349094863985 C 287.40300241106524 49.817865555971224, 291 51.4559251362363, 291 51.70362334922892 C 291 51.95132156222153, 288.4622477870823 56.4065851828608, 285.36055063796056 61.60420917287175 C 279.5296181316002 71.37530970980687, 278.9652190717081 74.32362625998124, 283.8151498641082 69.6770976696599 C 285.35200818607467 68.20469395134695, 287.0764267940541 67, 287.64719121517373 67 C 288.2179556362933 67, 290.44333214879174 64.5465953219567, 292.59247235405917 61.54798960434823 C 294.74161255932665 58.549383886739754, 296.92294919100635 56.07438388673975, 297.43988709112523 56.04798960434822 C 297.95682499124405 56.02159532195669, 301.4354095210926 57.846242362699854, 305.170074935233 60.1027608059997 C 312.5927634961166 64.58761601500635, 312.53039384687924 64.30615569036678, 307.5724800659209 70.94427965798957 C 301.81121693191784 78.65800373291975, 305.55015628341994 81.31271311265913, 312.1170073618828 74.17096993158945 C 314.7321033876096 71.32693646921525, 317.23808874171056 69.00024456755764, 317.6858637043294 69.00054348346143 C 318.13363866694823 69.0008423993652, 320.6594622107237 71.10058778567283, 323.29880491271933 73.66664434192282 L 328.09760982543867 78.33220171692278 323.6643984258259 82.91610085846139 C 319.6867109088287 87.02899256402387, 316.99999999999983 90.86617882703662, 317 92.43425854591072 C 317 93.94681117849827, 319.2806429542092 92.52444024607767, 324.9116366416649 87.49999999999997 C 328.30181645678977 84.47499999999997, 331.62108995496624 82.00001327055699, 332.28779997094597 82.00002949012668 C 332.9545099869257 82.00004570969637, 334.82050231715965 83.65502625864855, 336.4344495936881 85.67776404335376 L 339.3688991873762 89.35546910645414 327.6107685397749 100.70669139148741 C 321.14379668359413 106.94986364825571, 316.0001782407087 112.50053472212605, 316.1805053333627 113.04151600008814 C 316.36083242601677 113.58249727805024, 319.5230915480802 111.88196670083309, 323.2077478268369 109.2625591618278 C 326.89240410559364 106.64315162282251, 333.1905202313195 102.35834544154844, 337.203561439561 99.7407676478854 L 344.5 94.98153529577083 348.3035697243755 99.2407676478854 C 355.1947047900861 106.9574515899643, 356.3268798169624 105.25739703426274, 331.54835048242546 124.40011680138741 C 328.7717577170914 126.54518104215049, 326.17692064471174 128.7951810421505, 325.7820458771372 129.4001168013874 C 324.51544879389553 131.34050380789157, 326.8825247273665 131.21952910596121, 329.7354226334823 129.1980706532455 C 334.86949180572634 125.56025820197905, 356.3434513075085 112.99999999999997, 357.4288591553519 113 C 358.0211118411634 113, 360.2299351160277 115.75839717625988, 362.33735532171704 119.12977150279971 C 365.8999619343027 124.82910020658994, 366.285033544804 125.14353788376587, 367.8210130574705 123.60755837110108 C 369.3569925701373 122.07157885843597, 369.31407715826475 121.65869147722803, 367.2098710675633 117.72778686830137 C 360.04846483357255 104.34943723991174, 339.8166872925488 80.6985878813675, 325.58767314137395 69.0716403123322 C 288.5293616316595 38.7901998455061, 240.562646697346 23.350697765055777, 195 27.038145754523825 M 239.0371605872975 76.40226024847203 C 238.46672226428387 77.90262673910439, 238 79.42570814604153, 238 79.78688559722124 C 238 80.14806304840094, 237.03165378623927 83.5117926029098, 235.8481195249762 87.26184016279646 C 233.27689181820926 95.40881697898412, 231.5683339178941 96.85470216789511, 220.55496124711118 100.20383706062339 C 216.19545834321815 101.52954933122619, 212.4613593766182 103.1159218701454, 212.25696354355574 103.72910936933272 C 212.04153590661974 104.37539228014074, 215.58718868846813 105.96727112174823, 220.69266737808476 107.51645665753878 C 225.53670032013815 108.98631016686478, 230.35283093203145 110.9339111272792, 231.39517984895878 111.84445879179303 C 233.86663374078046 114.00340627339598, 236.4919054946719 120.07043494187161, 238.06133133715971 127.25 C 239.56519428290568 134.12963812318552, 241.48282623522363 134.71011901425314, 243.0166157793168 128.75 C 247.07686444182784 112.97236913191702, 248.21139155424146 111.50485042156423, 259.075477422846 107.97775077740589 C 269.25293266744296 104.67357045281992, 270.19506846631765 102.92311774112497, 262.78518012174925 101.08526334976179 C 249.52625033665132 97.79668716653485, 247.6689568244411 95.99731569729944, 244.04867089651327 82.93307581918914 C 241.61442687365079 74.14881168380504, 240.46394163239697 72.649541710511, 239.0371605872975 76.40226024847203 M 288.6766140804 82.75 C 288.4338331308075 83.1625, 287.9317692071499 84.91583845975633, 287.56091647227186 86.64630768834739 C 286.80043367662483 90.19486471105105, 284.67653656679425 92.41486900961404, 281 93.50410823976786 C 275.60219570888063 95.10330359217704, 275.5053610268796 96.33017097551806, 280.64276683679725 98.03014898389321 C 285.12642032787346 99.51379902323598, 285.6266448563296 100.01404253298972, 287.14661956206504 104.5342485014651 C 288.05226032120083 107.22750566508314, 289.17726032120083 109.55359750397899, 289.64661956206504 109.7033414767892 C 290.11597880292925 109.85308544959942, 291.4 107.61859251528966, 292.5 104.73780162276752 C 294.2736563783937 100.09277149427635, 294.9820235539403 99.33337235787575, 298.7592192394858 98.02765771845729 C 303.8455141479845 96.26940893409035, 303.7580481809279 95.03346637258849, 298.4417661000581 93.54186902252727 C 294.91247184110136 92.5516495638591, 294.30517413205445 91.89139103754499, 292.6252447110845 87.21810428021448 C 290.86229660979484 82.31387323766204, 289.7044287438651 81.00367867869757, 288.6766140804 82.75 M 421.5 99.32084332736073 C 387.50652102227855 119.04601933369119, 378.48490063493415 124.31039708577757, 378.06666666666683 124.66545592264382 C 376.8415356987834 125.70552824930733, 380.44436241423745 127.07390262919938, 389 128.81799902330954 C 395.95948039360326 130.2367132380821, 398.4696033278307 131.14808096573165, 398.3863349116137 132.22596068236183 C 398.28805391830866 133.49817281304132, 387.8479923580116 151.437559158462, 362.308782396538 194.2188090221117 C 358.7894262939505 200.11415398427314, 355.55768460269934 205.15533196052934, 355.1271341937577 205.42142674712545 C 354.69658378481597 205.68752153372156, 348.7543443330171 197.30192312900363, 341.9221576342046 186.78676362553006 C 335.08997093539205 176.27160412205646, 328.55748601476256 166.66745761510822, 327.4055244772501 165.44421583231173 C 325.3881293498324 163.30198978403905, 324.72569758545535 163.23007222172268, 309.4055244772501 163.49002795771298 C 300.6574860147625 163.63846640948017, 293.1625 163.81393494017223, 292.75 163.87995802591757 C 291.10140213058907 164.1438259495338, 292.28710302366454 166.48036968064656, 298.7912371750829 175.78482790671197 C 308.6061525153127 189.82550844151018, 335.9827908849118 230.7915788284785, 336.5652145486583 232.3093505668802 C 337.0826987631639 233.65789281324658, 295.391745777835 303.8320328014096, 291.7453910463053 307.75 C 290.59368054145693 308.9875, 288.49231325860023 310.0006392399039, 287.0756859732905 310.0014205331197 L 284.5 310.00284106623934 284.78872428800594 296.2514205331197 C 284.9475226464092 288.6881392399039, 285.2708994880559 281.9375, 285.5073394916652 281.25 C 285.7947425650778 280.4143139487614, 288.1963276829886 280, 292.75300767725986 280 C 299.21570453367707 280, 299.65765924442 279.84954780654664, 301.2843924736006 277.09570794336275 C 304.12578554825893 272.28561285487046, 303.71749760210776 272, 294 272 L 285 272 285 259.5 L 285 247 301.4184405196877 247 L 317.8368810393754 246.99999999999997 320.03250805249934 243.44740086614803 C 321.2401029097175 241.49347134252946, 322.0458886796998 239.7125553463706, 321.8231430969044 239.4898097635728 C 321.60039751410903 239.26706418077498, 313.3365671243438 238.95323379100836, 303.45907556409276 238.79240889742476 L 285.5 238.5 285.2202176775643 225.14127249221633 L 284.9404353551286 211.78254498443263 296.6034594401874 212.30875803415904 C 311.33564232281554 212.97344558236756, 311.6055347208914 212.87214422109682, 308.321965534475 207.91033618947603 L 305.73422748849134 204 295.36711374424567 204 L 285 204 285 190.9011291225332 C 285 168.3363512055031, 284.24003868599436 167.6951707193261, 256.67110683221256 167 L 236.84221366442506 166.5 235.0738279961315 161.47205407309625 C 230.39148583131367 148.15902873135389, 218.87235805556708 137.02649346956568, 204.91327550375257 132.32371743919157 C 199.85920319636324 130.62101455633783, 194.3574116172635 130.5, 122 130.5 C 36.59011848469538 130.5, 41.05354044243608 130.19849375650242, 29.311691618457502 136.7611386377664 C 17.802405660961462 143.19380164580292, 7.351190310145291 157.99295804101328, 4.938650435281261 171.27391406044103 C 4.2635933341965 174.99008213853935, 4.002574673033299 196.37328210447896, 4.206247441588175 231.27391406044103 L 4.522699506557672 285.5 7.099614250918933 292.1463574611297 C 13.48944274339819 308.62695091858035, 26.31287338709647 320.24575594153123, 43.35155717641234 324.9928139404995 L 49.203114352824684 326.62308548284284 49.079047262427395 341.0615427414214 C 48.93847345890223 357.4209886458467, 49.88741524946758 360.71481352235014, 55.8978832197962 364.7300666998792 C 59.62647582450094 367.22092820644724, 66.79779676664347 367.7877744828694, 71.5798868207539 365.9696270848849 C 75.44528731344734 364.5000044369555, 82.6481617728245 358.5713105512705, 97.16037349959561 344.9143003787175 L 109.82074699919121 333 206.95021156689205 333 C 300.56322835402227 333, 304.213997792309 332.9309082017387, 307.78983806729644 331.0915828159825 C 313.6224012224052 328.091453993043, 315.48948872702624 325.4459920722592, 335.5594201657424 291.7450755871049 C 345.9604885120303 274.27986716001266, 354.86673346347675 260.12224448782564, 355.3510756134012 260.2836918711338 C 355.8354177633256 260.44513925444187, 362.612600555695 270.4598552402447, 370.4114818186665 282.5386162840288 C 378.21036308163804 294.61737732781296, 385.69573109819913 306.18192962156894, 387.0456329665801 308.23762138126426 L 389.5 311.9752427625285 405.75 311.98762138126426 C 417.11005904284383 311.9962750329385, 422 311.662085344588, 422 310.87705941675847 C 422 309.85504231547407, 412.15870389832264 294.2116273354843, 383.34198562770837 249.42749475778098 C 377.65389353246877 240.58761687456052, 373 232.82030828915106, 373 232.16680901242665 C 373 231.51330973570225, 375.5723314978101 226.8209370947008, 378.7162922173558 221.73931425464568 C 384.9809137415484 211.613728516972, 390.6674033564725 201.90703541331817, 410.198492093146 168 C 417.3267243366938 155.625, 423.49901746003945 145.14664116442069, 423.914699033914 144.7147581431571 C 424.3303806077886 144.28287512189348, 427.43667428458616 146.8703751218935, 430.8175738712421 150.4647581431571 C 439.1062390256518 159.2768025521478, 439.96524806410804 159.11871787906793, 440.1353193239843 148.75 C 440.8868006731431 102.93451003139072, 440.475978521123 89.96628114840752, 438.27475084706373 90.01831344774686 C 437.84863788117866 90.02838584400764, 430.3 94.21452428983389, 421.5 99.32084332736073 M 275.12552980301666 121.18982567040177 C 274.6466310631762 122.4604215516808, 273.9350008904696 124.97032189606762, 273.5441294192242 126.76738199126136 C 272.78859949301994 130.24098592756388, 270.05546965008824 132.20879883437445, 264.25 133.4590171786694 C 259.7892530152027 134.41964707526483, 260.1421807692655 136.60721272895702, 264.8801407989032 137.36484309573638 C 270.1739532708735 138.21135785308164, 272.63011746668053 140.59385393617828, 274.29776186889 146.5 C 276.01309302560526 152.5750339496607, 277.03722595408084 152.60317191438736, 279 146.62919359097884 C 280.82676097297656 141.06919014723042, 282.3396873220202 139.47011919727797, 287.44602408779815 137.70226084905505 C 292.84517014829015 135.83302936783264, 292.8850123343641 134.50771024658545, 287.58665564916885 133.0242620818791 C 282.18229010826064 131.5111332724383, 280.5394936355983 129.8276106764835, 279.06585249690033 124.29222200190546 C 277.70980086615674 119.19853084342368, 276.2957087705496 118.08515144009972, 275.12552980301666 121.18982567040177 M 357 126 C 356.09870808164396 126.58245957234426, 355.9753674337122 126.97548637220305, 356.69098300562507 126.98468722548293 C 357.3460236587188 126.99310925146732, 358.1600813061875 126.55, 358.5 126 C 359.26730476831557 124.75847480513559, 358.92112324648235 124.75847480513559, 357 126 M 359.5 133.58928739259676 C 356.75 135.5027865144226, 351.575 138.70123554665727, 348 140.69695190867378 C 338.861392599978 145.7985094790987, 334.70911627940995 148.70218998515142, 335.6876518411258 149.3069582214923 C 336.14955239263077 149.5924284617447, 338.54629004490226 148.89816403683872, 341.0137355128402 147.76414838836791 C 353.2810487174104 142.12620205097582, 358.95425666929304 139.64958144026497, 363.75 137.83870554949098 C 366.6375 136.74838361730386, 369 135.68480793773483, 369 135.4752040393376 C 369 134.02111580564116, 366.4762284714368 130.01025334133203, 365.58948497969186 130.05509904009304 C 364.9902682408613 130.0854035121442, 362.25 131.67578827077088, 359.5 133.58928739259676 M 372 136.79709637534518 C 372 138.60438539985248, 376.27569268424463 148, 377.09814153823237 148 C 379.43869973129 148, 380.085890474829 143.83662705514573, 378.31010815091986 140.20342834673778 C 376.6440517451095 136.7947256582235, 372 134.28776673488682, 372 136.79709637534518 M 199.57186116809154 152.67589561736452 C 203.05570138039138 153.86063345502208, 206.2584309235655 156.13194006462749, 210.5 160.42589561736452 L 216.5 166.5 199.32093758199247 167 C 183.98089775967537 167.44647488463158, 181.8398931449384 167.72171011157604, 179.32093758199247 169.57108485474484 C 172.7929375617149 174.36383250718367, 173.00326962660813 171.98026431765697, 173.00155399907933 241.1849003388255 C 173.00060418946768 279.4981282167952, 173.37917349783788 304.8671025547169, 173.97524915293633 306.4349003388255 C 174.51163618705127 307.8457051524715, 174.62413618705128 309.01879198368226, 174.2252491529363 309.0417599637383 C 173.82636211882132 309.06472794379437, 157.6036328648194 309.231471822313, 138.17473969959866 309.41230191600187 L 102.84947939919729 309.74108390452716 98.67473969959865 313.6033189132554 C 96.3786328648194 315.7275481680559, 88.7625 323.09181151175056, 81.75 329.9683485659102 L 69.00000000000001 342.4711432098369 69 327.1901170594644 C 69 308.1549874161949, 68.69283233899858 307.64359500351, 56.71528445757798 306.7377351260742 C 39.59125281333969 305.442647570589, 27.726103921636224 295.004091518845, 24.05008590032751 278 C 23.197176798678548 274.05471345961155, 22.95137664602113 258.9025281731912, 23.180536060607466 224.3971842784877 L 23.5 176.29436855697543 27 169.48652351917133 C 31.160983500730666 161.39300041121876, 37.6142701486406 155.51651864584264, 45.23034859346795 152.88563207718622 C 53.01029721060537 150.1981384451366, 191.73143635813238 150.0096286907491, 199.57186116809154 152.67589561736452 M 361.74768837665937 155.85634266639875 C 343.23674156524254 163.33531123737595, 343.6357631345578 165.22557569487245, 362.5101938289288 159.46852071869208 C 371.4846540437956 156.731142215724, 376.19340836763723 153.84712808671392, 374.5 152.1250137053021 C 373.8247036027097 151.43826994064727, 369.6839820757342 152.64984589721038, 361.74768837665937 155.85634266639875 M 226.26374974414486 166.7039311899189 C 225.03381210342454 166.9412930851577, 222.78381210342454 166.9474356019636, 221.26374974414486 166.71758122726533 C 219.74368738486518 166.48772685256702, 220.75 166.29352166555347, 223.5 166.28601414501293 C 226.25 166.2785066244724, 227.49368738486518 166.4665692946801, 226.26374974414486 166.7039311899189 M 274.72663806109824 178.1880928845982 C 275.6322828046527 178.93971126418944, 276 182.81923838497644, 276 191.62244471544216 L 276 204 255 204 L 234 204 234 190.57332416321054 C 234 178.91590988815238, 234.21654318289117 177.10404321545383, 235.64331559800655 176.82332416321054 C 239.6616534974683 176.03271173281874, 273.55566617083247 177.21627253122855, 274.72663806109824 178.1880928845982 M 226 190.5 L 226 204 204 204 L 182 204 182 192.5 C 182 176.17572801443333, 180.72370789331612 177, 206 177 L 226 177 226 190.5 M 45 184 C 43.9 185.1, 43 186.9, 43 188 C 43 189.1, 43.9 190.9, 45 192 C 46.94002240218356 193.94002240218356, 48.33333333333334 194, 91.4610448525804 194 C 135.91121585740456 194, 135.92258837288057 193.99946474303394, 137.9610448525804 191.81143855336794 C 140.53765760117307 189.04576941562001, 140.5501033292729 186.5501033292729, 138 184 C 136.05992509363296 182.05992509363296, 134.66666666666666 182, 91.5 182 C 48.33333333333334 182, 46.940074906367045 182.05992509363296, 45 184 M 147.55670396864906 184.2225062434054 C 145.46152846813877 187.2137882884787, 145.59738713168716 189.59738713168716, 148 192 C 151.92301621812237 195.92301621812237, 160 193.23068829082982, 160 188 C 160 182.55176758767448, 150.7036490457543 179.72961278236417, 147.55670396864906 184.2225062434054 M 406 193.78210414577373 L 401.5 201.5 400.88312420843835 221 C 400.54384252307943 231.725, 399.7028991542756 243.6867825825601, 399.01436116665207 247.5817390723558 C 397.8014348217222 254.44308212640323, 397.8390627976256 254.78542122935826, 400.22341888563585 258.5817390723558 C 409.1723692756447 272.83005550987264, 408.19442595449016 271.70194216251076, 409.2246097864158 268.9651256937128 C 409.7349629519474 267.6093065621708, 411.10109919496495 261.1, 412.2604681042326 254.5 C 415.58130397331774 235.59530403932675, 415.1491834817184 185.93605460099243, 411.6646801865751 186.03210414577373 C 411.02410608395877 186.04976142594927, 408.475 189.53726142594928, 406 193.78210414577373 M 45.634858691801284 212.0725801490329 C 42.561945664402565 214.48973388866557, 42.221313379693726 217.98532316961555, 44.82874067158407 220.34501243788793 C 46.472954228071345 221.833005255965, 51.16498683024902 222, 91.3287406715841 222 C 134.6666666666666 222, 136.05969535461412 221.94030464538594, 138.00000000000003 220 C 140.54625510925445 217.45374489074558, 140.54625510925445 214.54625510925445, 138 212 C 136.06079238746617 210.06079238746617, 134.66666666666666 210, 92.13485869180128 210 C 49.2718723048615 210, 48.20952068695322 210.04735072848536, 45.634858691801284 212.0725801490329 M 148.8955163016634 211.28564185283858 C 143.8763300125507 215.10844283907235, 146.4947207668129 222, 152.96634901120518 222 C 159.58956531993257 222, 162.27654359387498 215.93588974999233, 157.3651413081987 212.0725801490329 C 154.41205527583705 209.7496823374334, 151.2927034519623 209.4598539911233, 148.8955163016634 211.28564185283858 M 209.13957126548752 213 L 226 213 226 225.5 C 226 232.375, 225.6625 238.00233102208756, 225.25 238.00518004908346 C 224.8375 238.00802907607937, 215.05 238.1121885646877, 203.5 238.2366455793242 L 182.5 238.46293106048148 182.21660549227963 226.53968186787688 C 181.8591387761356 211.49999472315437, 181.8329502781227 211.5681900777368, 187.65930733925865 212.3667811479428 C 190.20021669470265 212.71505151657425, 199.86633546150566 213, 209.13957126548752 213 M 259.2798769423964 212.9889943361189 L 276.0597538847928 213 275.7798769423964 225.60596264445388 L 275.5 238.21192528890774 255.5 238.1332485469318 C 244.5 238.08997633884505, 235.1625 238.0422931488408, 234.75 238.02728590247796 C 234.3375 238.0122786561151, 234 232.45, 234 225.66666666666669 C 234 218.88333333333333, 234.3375 212.99376956057745, 234.75 212.57874717165356 C 235.1625 212.16372478272964, 237.075 212.08377223398315, 239 212.40107484110578 C 240.925 212.7183774482284, 250.0509446240784 212.98294122098432, 259.2798769423964 212.9889943361189 M 390.33077331254685 221.75 C 387.25079860620286 229.11989613739348, 387.99694708648144 243, 391.4731030359314 243 C 392.2957246808084 243, 392.9164324468461 240.26551095958925, 393.34578893597865 234.75 C 394.65393417768615 217.945573841334, 393.6784510678704 213.7395324765564, 390.33077331254685 221.75 M 44.55670396864905 241.2225062434054 C 42.507384999634105 244.14831891883497, 42.59030156046064 246.319252883776, 44.828740671584065 248.34501243788793 C 46.45495936951097 249.8167201327859, 50.42457779463098 250, 80.67375310947196 250 C 112.3581724113835 250, 114.80347607500666 249.87463783594322, 116.3450124378879 248.17125932841594 C 118.51620620597816 245.77211721974092, 118.44549204876998 242.71313988738083, 116.17125932841593 240.65498756211207 C 114.54482327780983 239.18308316574286, 110.56859253426629 239, 80.22796329706499 239 L 46.113407937298106 239 44.55670396864905 241.2225062434054 M 126.55670396864906 241.2225062434054 C 122.70924347323104 246.7155255614862, 125.96494786903175 250, 135.2573121001555 250 C 142.51615197995233 250, 145 248.5978033730835, 145 244.5 C 145 240.35621714680383, 142.53051977694406 239, 134.9852753972205 239 C 129.01770041166304 239, 127.90855595319434 239.29246717604232, 126.55670396864906 241.2225062434054 M 226 259.53861234415683 L 226 272 204 272 L 182 272 182 259.5833333333333 C 182 252.2771246420799, 182.40761559771306 247.029473163971, 182.99036662257808 246.83333333333331 C 183.53506826499603 246.65, 193.435068264996 246.62987555487055, 204.99036662257808 246.7886123441568 L 226 247.0772246883136 226 259.53861234415683 M 276 259.5 L 276 272 255 272 L 234 272 234 259.5 L 234 247 255 247 L 276 247 276 259.5 M 44.55670396864905 268.2225062434054 C 42.39241568211934 271.3124606125177, 42.59397290926492 272.53545874581476, 45.66571263757798 274.95168956825216 C 48.20469165814922 276.9488507569038, 49.42218374882633 277.04437845017105, 71.27441953731356 276.9610173630041 L 94.21741379947116 276.87349529143796 96.67081039795681 274.42009869295225 C 99.17518966012382 271.9157194307852, 99.14991241326423 268.43512602693437, 96.61521875283574 266.76531277451704 C 96.00184843877608 266.36123480050145, 84.38801678589208 266.0237348005015, 70.80670396864906 266.01531277451704 C 46.41467029580414 266.0001868184207, 46.094415887452044 266.0271149494111, 44.55670396864905 268.2225062434054 M 225.77673307552374 295.25 L 226.05346615104745 310 206.94980999860064 310 L 187.84615384615387 310 184.92307692307693 307.0769230769231 C 182.03388072601555 304.1877268798617, 182 304.0215924426451, 182 292.7435897435897 C 182 286.46794871794873, 182.3087058545083 281.02462747882504, 182.68601301001843 280.6473203233149 C 183.06332016552855 280.27001316780473, 192.85082016552855 280.08251316780473, 204.43601301001843 280.2306536566482 L 225.5 280.5 225.77673307552374 295.25 M 275.5480458339963 294 L 275.5960916679926 307.5 275.2681688915999 294.75 L 274.9402461152072 282 255.08457053616024 282 L 235.22889495711328 282 235.20683804532683 295 L 235.18478113354038 308 255.15140756114516 308 C 268.20784783871494 308, 274.90414057391615 308.3460868151708, 274.5 309 C 274.12140932693353 309.61257257684525, 266.15628235020847 310, 253.94098300562504 310 L 234 310 234 295.5733241632105 C 234 282.6785355071002, 234.18582261059422 281.0969679220257, 235.75 280.67877895673683 C 236.7125 280.42145080341055, 246.05 280.2759549299658, 256.5 280.3554547935263 L 275.5 280.5 275.5480458339963 294 M 353.24682751181354 285.25 C 353.66784456958726 286.52274179324957, 360.8839248841122 291.9062678018671, 362.25 291.96677851931065 C 364.3968754334461 292.06187502698356, 362.5069011644187 288.93945514250663, 359.0214402595235 286.63288625575444 C 354.71134870429165 283.78060262623825, 352.59294211542374 283.2732932214635, 353.24682751181354 285.25 M 344.6069888041843 300.5817874682358 C 344.27314496188296 301.4517705757655, 344 302.34576351334675, 344 302.5684384406386 C 344 302.79111336793045, 347.6 305.06504436211725, 352 307.62161842772036 C 356.4 310.1781924933234, 360 312.66814191131004, 360 313.1548393565795 C 360 314.2053202563386, 355.3824253457427 321.76980790321653, 353.2468462926845 324.21782190075066 C 351.5196362828667 326.1977225158369, 350.966745206572 325.9870855401787, 341.5495805290961 319.76147093118163 C 335.9686292647916 316.0719472886507, 335.51763172580746 315.93919272550664, 334.2861015899987 317.62341054256524 C 332.53833422118026 320.01362484349625, 332.5304783566909 320.00250278025936, 340 325.71295174218056 C 343.575 328.44603908213827, 346.5 331.2000095799167, 346.5 331.8328861816881 C 346.5 333.49324181304735, 336.73447182950434 344.87705341884833, 335.25288082303337 344.9438089687841 C 334.5669652757017 344.97471403595284, 332.09196527570174 343.33191968882545, 329.75288082303337 341.29315486405653 C 321.9238166566422 334.46927955887514, 322.4169354244054 334.7259217184516, 320.6087416424943 336.5341155003628 C 319.1034521273764 338.03940501548084, 319.40446426657905 338.63141639207606, 324.57339488825653 344.3315413183507 L 330.1670152703571 350.5 325.4867604929681 354.75 C 322.9126203654041 357.0875, 320.2302061625009 359, 319.5258400420721 359 C 318.8214739216433 359, 314.8173195548047 355.63823695106703, 310.62771922687534 351.5294154468156 C 305.67009091225435 346.6673741457859, 302.4847092232659 344.2605052168735, 301.5051320425927 344.6364042509998 C 299.26779713420274 345.4949502111078, 299.44347873505126 345.84956613894695, 306.5728454349785 354.8656592098795 C 310.1879104242167 359.43742045772973, 312.9098353127446 363.7925821175976, 312.62156740948484 364.5437962318081 C 312.3332995062251 365.29501034601856, 310.2755190604848 366.83911679819926, 308.0487219745063 367.9751439033207 C 304.580060370339 369.7447230111974, 304 369.8157161633426, 304 368.47066393852293 C 304 365.93425876351995, 301.0676788049986 361, 299.5603491309329 361 C 298.4731309718018 361, 298.6317038301028 362.0879492247788, 300.2915526291886 366.0166988701981 L 302.41104670404815 371.03339774039625 300.40366591551754 373.0407785289268 L 298.396285126987 375.0481593174574 290.4481425634935 363.44059956323906 C 286.0766641535721 357.0564416984189, 281.6 350.5265038650802, 280.5 348.92962660026416 C 278.44682658007304 345.9490211866223, 275.98407459845583 345.02560585345475, 276.02042987635014 347.25 C 276.03166630834266 347.9375, 279.59591864955365 355.1658537445104, 283.94099063459674 363.3130083211342 L 291.8411215164933 378.1260166422684 288.67056075824667 380.0592702606966 C 283.81472670476256 383.0201215012755, 282.48167843100714 382.56195174163344, 280.49696834468455 377.25 C 278.6800659474549 372.38717498598277, 274.0264798083523 363.8368091504105, 274.0094604950021 365.3300389596681 C 274.00425722275094 365.78656038748557, 275.35 369.9849156012166, 277 374.6597172124036 C 278.65 379.3345188235907, 280 383.33694522593584, 280 383.55399810650397 C 280 383.77105098707204, 278.67553784873013 384.6335457043203, 277.05675077495584 385.47065303372233 C 273.4806219650556 387.31994111252664, 274.5838538884883 388.92732385729516, 264.88876866511794 367.74219171332356 C 251.63844430073968 338.7883593186194, 249.7364889435979 338.60323593430377, 259.3523500003678 367.2033144171986 C 262.9206911202096 377.81649148773937, 266.125919691526 387.22648525854396, 266.4750801588488 388.1144116856533 C 266.968016338922 389.36796442752376, 266.1548708562814 389.97123998252323, 262.8372277737866 390.81334744002504 C 260.48724849467953 391.4098356778202, 258.480123790513 391.8083504192762, 258.37695065341643 391.69893575437175 C 258.2737775163199 391.58952108946727, 256.58790047028543 386.8286440434326, 254.63055721778431 381.1192089854057 C 252.6732139652832 375.4097739273788, 250.83060726071307 370.49727392737924, 250.53587565207295 370.2025423187399 C 249.06106666484453 368.7277333315156, 248.96273039618916 371.39191180295006, 250.33350715044503 375.6852173551807 C 252.46869503081092 382.3726768217709, 254.24717688407128 391.79104240596445, 253.57895565114865 392.8722470728376 C 253.12721232958438 393.6031831213193, 246.58007115436985 395.3465945433432, 245.11369972099652 395.1264254209162 C 244.76680568699587 395.07434083081654, 238.24992905677314 370.31989552338746, 234.3525366957574 354.25 C 232.79316671077575 347.82033872401024, 231 345.9205392476686, 231 350.6981007701394 C 231 354.38449177280893, 232.8766600851611 367.91746660147567, 235.52465446174674 383.32629775871476 L 237.72884269581232 396.1525955174296 235.29932168673162 397.07629775871476 C 233.96308513173722 397.58433399142166, 231.6137152812202 398, 230.07849979669385 398 C 227.3466971995212 398, 227.2730908046412 397.84820227099857, 226.62533137225523 390.8785654351923 C 225.58363943233857 379.6703696868684, 224.0660379397932 378.9342859632165, 224.03040868590102 389.61994756815477 L 224 398.7398951363096 219.25048123708243 399.2752347232983 C 213.59846397153345 399.9122989690943, 213.03381762955698 399.2981111105856, 213.02174934415433 392.5 C 213.00427914195498 382.6589685930179, 210.58559636490793 353, 209.8005324837727 353 C 208.836793111994 353, 208.8686146687425 352.7808140691409, 208.566496926371 361.5 C 208.43309533161732 365.35, 207.9612286062964 375.5875, 207.51790420343562 384.25 L 206.71185983459782 400 203.4377173855337 400 C 197.22230072174878 400, 196.99999999999997 399.6509957223462, 197 389.89301119581535 C 197 378.73879259448717, 195.50585816503633 378.2842499732931, 194.66542299200563 389.18279431562263 C 194.31836659921765 393.6833311892151, 193.63528202847016 397.7647179715299, 193.14745727923344 398.2525427207666 C 192.65963252999668 398.7403674700033, 190.57464589485545 398.82322807535036, 188.51415364558622 398.4366773993156 L 184.76780410146037 397.73385798834323 185.45311860540116 390.61692899417164 C 185.83004158256858 386.7026180473772, 187.22365432942598 375.8788686696856, 188.55003582063983 366.5641525993012 C 189.8764173118537 357.2494365289169, 190.77520888261054 349.4418755492765, 190.54735042232178 349.2140170889893 C 189.5378630187419 348.20452968541633, 188.17436480623135 350.2797627071327, 187.57431344974285 353.738954814371 C 187.21548655967194 355.80752966646696, 185.63042135057538 362.675, 184.05194631841715 369 C 182.4734712862589 375.325, 180.43730593397484 383.9787031937479, 179.52713442445256 388.230451541662 C 178.61696291493027 392.4821998895761, 177.53867497795957 396.1670805547319, 177.13093900896214 396.41907524200815 C 176.36880457422532 396.89010022667225, 169.17841468708386 395.5117480204125, 168.4149401176515 394.74827345098436 C 168.18030308246836 394.5136364158025, 168.91500860095377 390.59834193428804, 170.04761904761907 386.0476190476188 C 171.18022949428436 381.4968961609496, 171.88779486620118 377.5544615328666, 171.6199865407675 377.2866532074344 C 170.76470674714147 376.43137341381305, 169 378.06117133743396, 168.99999999999994 379.7063462419709 C 168.99999999999991 381.0961759951349, 165.14962194221135 392.85128966126916, 164.35481394921015 393.8879900202801 C 163.57263725088978 394.9082148684182, 154.9382837661039 391.6032132184654, 155.37981598739344 390.4525986937154 C 158.43639462493582 382.4872824453901, 168.99523806093083 347.66190472759524, 168.50295290489325 347.16961957156104 C 168.1438256736584 346.8104923403286, 167.3374691060532 347.41291225122325, 166.71104942132612 348.5083304846602 C 164.36298855836617 352.61437750907095, 156.3834790557772 369.860940344641, 153.25894739403896 377.5831154459205 C 148.66694012954702 388.9321072314693, 148.02605018991588 389.6676445914579, 144.1340907613665 388.05554221194694 C 140.383143971574 386.5018491798751, 140.3614819403095 386.1652683599935, 143.51910487412215 378.5 C 144.87850355296902 375.2, 145.99282259763797 371.2890576474687, 145.99536941783094 369.80901699437493 C 145.99791623802392 368.3289763412812, 146.44999999999996 366.8399186938125, 146.99999999999997 366.5 C 147.54999999999998 366.1600813061876, 147.99999999999997 365.17842353676986, 148 364.3185382901829 C 148.00000000000003 363.0422072355078, 147.72455074591215 362.9837131458883, 146.50000000000003 364 C 145.67500000000004 364.6846891869864, 145.00000000000003 365.951260248094, 145.00000000000003 366.8146023580168 C 145.00000000000003 369.48795632045744, 137.5750470052822 383.98068338377396, 136.20034007311577 383.9906127194379 C 135.173060386457 383.9980326317049, 129.41715806157393 381.5004412358894, 128.25233963152365 380.5418298186159 C 128.11612642886166 380.4297303463835, 131.8286264288617 372.98388214062993, 136.50233963152368 363.9955004724968 C 145.01920358866985 347.61605643241444, 145.70817267789346 346, 144.1743140267095 346 C 142.47676309584162 346, 130.0541474909876 363.2138458266518, 123.47044775983417 374.6890597978699 C 121.52609986630091 378.07800659433514, 120.07765376631028 377.99094759124523, 115.76007014728573 374.2256267516559 C 114.12092941378191 372.7961487594552, 114.19795354310885 372.3974664454784, 117.08974326125976 367.34314513785216 C 121.36362643180114 359.8731764054835, 120.16584122075227 358.27488463064986, 115.52827479311594 365.25956438708386 C 113.43198565406561 368.41680397418776, 111.48552689094359 371, 111.202810875067 371 C 110.92009485919041 371, 109.19302292504713 369.85912912207175, 107.36487324363749 368.4647313823816 L 104.04096473198359 365.92946276476323 112.03583003926754 355.89407293657746 C 116.43300595827371 350.3746085310753, 119.79834072565993 345.48272543434604, 119.51435174457026 345.0232216105125 C 118.38163935289592 343.1904544613052, 114.92475129550212 345.5338664725776, 106.97966623830395 353.52043994249743 C 99.9005981892663 360.6364741529781, 98.3740591271669 361.7353741280619, 96.76450201662094 360.87396530413884 C 95.43161125158794 360.16062381485455, 94.44394592025006 360.2165944670362, 93.42374652868148 361.06328476034173 C 91.42038970246942 362.72592325316936, 92.54183121666266 363.89003981929153, 103.4443292464781 371.46518820010954 C 148.91662892999508 403.05972886204364, 207.13695138836027 412.3049673828722, 260 396.3258288971732 C 292.8324567812305 386.4014225772267, 323.19147482529064 366.85461776390065, 345.6227287305369 341.1972090040267 C 358.2847561733682 326.7140768883726, 372.60961036505097 304.7521940828166, 371.4186675678082 301.64864690191627 C 370.37875779159344 298.93868546478086, 368.07682792623405 299.7710363053102, 366.2986090776957 303.5 C 364.2017631199495 307.89713168951033, 363.2095481698815 307.85462827834726, 354.0122658926828 302.9736911633437 C 345.4970240197024 298.45470839773907, 345.4297872551878 298.437609075308, 344.6069888041843 300.5817874682358 M 375.50418628058674 311.98681019782725 C 375.15736229729663 313.0795558066322, 372.1425310300419 318.1420558066322, 368.80456124224276 323.23681019782725 C 342.42105326517515 363.5060461904999, 303.431340546268 392.1449044977095, 258 404.6253588154294 C 244.64719603204895 408.29351075485476, 219.4543643035643 412, 207.87491339299473 412 C 198.8055930936766 412, 178.11889783867494 409.45448366064477, 166.12402054313714 406.86251532098703 C 140.62600158259806 401.3526583844516, 113.44988075237272 388.7834121862777, 91.72378311477834 372.45161071536893 C 86.06296575103396 368.1962977323429, 85.60267263566905 368.029013784321, 83.61123020954506 369.50327229095467 C 82.45005359429527 370.36288765330687, 79.49016743670452 372.0154245153803, 77.03370541489895 373.17557642889557 L 72.5674108297979 375.28494354437794 77.49217906422098 379.74362431482564 C 90.56356788482088 391.5779172608531, 119.03927104141253 407.2978059707672, 141 414.8028420566885 C 230.2660169252232 445.30932840937777, 325.7312126525806 412.62748161412577, 379.42195326474337 333.1807420876406 C 386.9842643846419 321.99071276581157, 388.27922637237486 319, 385.5621356892352 319 C 384.7713103183146 319, 382.6700264113938 316.975, 380.8926158960779 314.5 C 377.29506287639896 309.49049676651487, 376.4252454616498 309.0848096902255, 375.50418628058674 311.98681019782725" stroke="none" fill="#2563EB" fill-rule="evenodd" data-fill-layer-id="trace-color"/>
</svg>